# xmcd CD database file
#
# Track frame offsets:
#	150
#	14175
#	32175
#	47625
#	67900
#	80330
#	106650
#	127950
#	145062
#	157362
#	177417
#	194700
#	217697
#	241050
#	257100
#
# Disc length: 3673 seconds
#
# Revision: 9
# Processed by: cddbd v1.5.2PL0 Copyright (c) Steve Scherf et al.
# Submitted via: CDex 1.70beta2
#
DISCID=d10e570f
DTITLE=Various Artist - Genuine Houserockin' Music III
DYEAR=1988
DGENRE=Blues
TTITLE0=Elvin Bishop - Don't Lie To Me
TTITLE1=Katie Webster - Who's Making Love?
TTITLE2=The Paladins - Years Since Yesterday
TTITLE3=A.C. Reed - She's Fine
TTITLE4=Roy Buchanan - High Wire
TTITLE5=Lonnie Brooks - Two Headed Man
TTITLE6=Kenny Neal - Outside Looking In
TTITLE7=Little Charlie and The Nightcats - I Ain't Lyin'
TTITLE8=The Kinsey Report - Poor Man's Relief
TTITLE9=Maurice John Vaughn - Girl Don't Live Here
TTITLE10=Tinsley Ellis - Can't You Lie
TTITLE11=The Siegel-Schwall Band - I Think It Was The Wine
TTITLE12=Rufus Thomas - That Woman Is Poison
TTITLE13=Lazy Lester - Take Me In Your Arms
TTITLE14=Lucky Peterson - Over My Head
EXTD=YEAR: 1988
EXTT0=
EXTT1=
EXTT2=
EXTT3=
EXTT4=
EXTT5=
EXTT6=
EXTT7=
EXTT8=
EXTT9=
EXTT10=
EXTT11=
EXTT12=
EXTT13=
EXTT14=
PLAYORDER=
